<svg width="196" height="62" viewBox="0 0 196 62" fill="none" xmlns="http://www.w3.org/2000/svg">
<path d="M121.301 53.5C119.907 53.5 118.756 53.0152 117.847 52.0455C116.938 51.0758 116.513 49.8939 116.574 48.5C116.634 47.1364 117.188 45.9773 118.233 45.0227C119.278 44.0682 120.483 43.5909 121.847 43.5909C123.195 43.5909 124.339 44.0758 125.278 45.0455C126.233 46.0152 126.665 47.1667 126.574 48.5C126.513 49.4394 126.225 50.2879 125.71 51.0455C125.21 51.803 124.574 52.4015 123.801 52.8409C123.028 53.2803 122.195 53.5 121.301 53.5Z" fill="#6CE3A2"/>
<path d="M20.3267 32.0483C20.3646 30.732 19.9621 29.7235 19.1193 29.0227C18.286 28.322 17.0881 27.9716 15.5256 27.9716C14.4271 27.9716 13.4564 28.1373 12.6136 28.4688C11.7803 28.7907 11.108 29.2405 10.5966 29.8182C10.0852 30.3864 9.76799 31.035 9.64489 31.7642C9.54072 32.3608 9.5928 32.8816 9.80114 33.3267C10.0095 33.7718 10.3267 34.1506 10.7528 34.4631C11.1884 34.7756 11.6809 35.036 12.2301 35.2443C12.7888 35.4527 13.357 35.6278 13.9347 35.7699L16.5483 36.4517C17.59 36.7074 18.5843 37.053 19.5312 37.4886C20.4782 37.9148 21.2973 38.464 21.9886 39.1364C22.6894 39.7992 23.2008 40.5994 23.5227 41.5369C23.8447 42.4744 23.8968 43.5729 23.679 44.8324C23.3949 46.5369 22.7083 48.0379 21.6193 49.3352C20.5398 50.6231 19.1193 51.6316 17.358 52.3608C15.6061 53.0805 13.5653 53.4403 11.2358 53.4403C8.98201 53.4403 7.0786 53.09 5.52557 52.3892C3.97254 51.679 2.83617 50.6515 2.11648 49.3068C1.40625 47.9621 1.17898 46.3286 1.43466 44.4062H6.61932C6.51515 45.4195 6.68087 46.2623 7.11648 46.9347C7.56155 47.607 8.20076 48.1089 9.03409 48.4403C9.86742 48.7718 10.8333 48.9375 11.9318 48.9375C13.0777 48.9375 14.1146 48.767 15.0426 48.4261C15.9706 48.0758 16.7282 47.5928 17.3153 46.9773C17.9119 46.3523 18.2765 45.6231 18.4091 44.7898C18.5417 44.0417 18.4328 43.4167 18.0824 42.9148C17.732 42.4129 17.1875 41.9962 16.4489 41.6648C15.7197 41.3239 14.8485 41.0208 13.8352 40.7557L10.6818 39.9034C8.39962 39.2784 6.66667 38.3409 5.48295 37.0909C4.30871 35.8409 3.89205 34.1742 4.23295 32.0909C4.51705 30.3674 5.23201 28.8665 6.37784 27.5881C7.52367 26.3002 8.95833 25.3011 10.6818 24.5909C12.4053 23.8712 14.2898 23.5114 16.3352 23.5114C18.3996 23.5114 20.1468 23.8712 21.5767 24.5909C23.0161 25.3106 24.0672 26.3144 24.7301 27.6023C25.4025 28.8807 25.625 30.3627 25.3977 32.0483H20.3267ZM25.451 61.1818L30.4794 31.1818H35.5362L34.9538 34.7898H35.2521C35.593 34.2595 36.0523 33.696 36.63 33.0994C37.2171 32.4934 37.9605 31.9773 38.8601 31.5511C39.7597 31.1155 40.8535 30.8977 42.1413 30.8977C43.8175 30.8977 45.2616 31.3286 46.4737 32.1903C47.6858 33.0426 48.5523 34.3068 49.0732 35.983C49.6035 37.6496 49.6697 39.6951 49.272 42.1193C48.8743 44.5152 48.1404 46.5511 47.0703 48.2273C46.0002 49.9034 44.7171 51.1818 43.2209 52.0625C41.7247 52.9432 40.1196 53.3835 38.4055 53.3835C37.1555 53.3835 36.147 53.1752 35.38 52.7585C34.6224 52.3419 34.0495 51.84 33.6612 51.2528C33.273 50.6562 32.9841 50.0928 32.7947 49.5625H32.5675L30.6357 61.1818H25.451ZM33.7038 42.0909C33.4766 43.5019 33.4718 44.7377 33.6896 45.7983C33.9169 46.8589 34.3667 47.6875 35.0391 48.2841C35.7114 48.8712 36.5921 49.1648 37.6811 49.1648C38.8175 49.1648 39.8118 48.8617 40.6641 48.2557C41.5258 47.6402 42.2408 46.8021 42.8089 45.7415C43.3866 44.6714 43.7938 43.4545 44.0305 42.0909C44.2483 40.7367 44.2483 39.5341 44.0305 38.483C43.8127 37.4318 43.3724 36.608 42.7095 36.0114C42.0466 35.4148 41.147 35.1165 40.0107 35.1165C38.9027 35.1165 37.9131 35.4053 37.0419 35.983C36.1802 36.5606 35.4652 37.3703 34.897 38.4119C34.3288 39.4536 33.9311 40.6799 33.7038 42.0909ZM58.0611 53.4403C56.6785 53.4403 55.4759 53.1941 54.4531 52.7017C53.4304 52.1998 52.6776 51.4612 52.1946 50.4858C51.7211 49.5104 51.6027 48.3078 51.8395 46.8778C52.0478 45.6468 52.4455 44.6288 53.0327 43.8239C53.6293 43.0189 54.3584 42.375 55.2202 41.892C56.0914 41.3996 57.0384 41.0303 58.0611 40.7841C59.0933 40.5379 60.1444 40.358 61.2145 40.2443C62.5213 40.1117 63.5772 39.9886 64.3821 39.875C65.1965 39.7614 65.8073 39.5909 66.2145 39.3636C66.6217 39.1269 66.8679 38.767 66.9531 38.2841V38.1989C67.1236 37.1288 66.9531 36.3002 66.4418 35.7131C65.9304 35.1259 65.0781 34.8324 63.8849 34.8324C62.6349 34.8324 61.5838 35.107 60.7315 35.6562C59.8793 36.2055 59.259 36.8542 58.8707 37.6023L54.2116 36.9205C54.7988 35.5947 55.6037 34.4867 56.6264 33.5966C57.6491 32.697 58.8281 32.0246 60.1634 31.5795C61.508 31.125 62.9427 30.8977 64.4673 30.8977C65.509 30.8977 66.527 31.0208 67.5213 31.267C68.5251 31.5133 69.4105 31.9205 70.1776 32.4886C70.9541 33.0473 71.5223 33.8097 71.8821 34.7756C72.2514 35.7415 72.313 36.9489 72.0668 38.3977L69.6378 53H64.6946L65.206 50.0028H65.0355C64.6283 50.6089 64.098 51.1771 63.4446 51.7074C62.7912 52.2282 62.0147 52.6496 61.1151 52.9716C60.2154 53.2841 59.1974 53.4403 58.0611 53.4403ZM60.0071 49.6619C61.0393 49.6619 61.9673 49.4583 62.7912 49.0511C63.6151 48.6345 64.2921 48.0852 64.8224 47.4034C65.3527 46.7216 65.6842 45.9782 65.8168 45.1733L66.2429 42.6023C66.0535 42.7348 65.7599 42.858 65.3622 42.9716C64.9645 43.0852 64.5194 43.1847 64.027 43.2699C63.544 43.3551 63.0658 43.4309 62.5923 43.4972C62.1188 43.5634 61.7116 43.6203 61.3707 43.6676C60.5848 43.7718 59.8651 43.9422 59.2116 44.179C58.5677 44.4157 58.0327 44.7472 57.6065 45.1733C57.1899 45.59 56.9295 46.1297 56.8253 46.7926C56.6738 47.7301 56.8963 48.4451 57.4929 48.9375C58.0895 49.4205 58.9276 49.6619 60.0071 49.6619ZM74.8082 53L78.4446 31.1818H83.4304L82.8196 34.8182H83.0469C83.6435 33.5587 84.4863 32.5881 85.5753 31.9062C86.6738 31.215 87.848 30.8693 89.098 30.8693C89.3916 30.8693 89.7088 30.8835 90.0497 30.9119C90.3906 30.9309 90.6842 30.964 90.9304 31.0114L90.1349 35.7415C89.9171 35.6657 89.5762 35.5994 89.1122 35.5426C88.6577 35.4763 88.2079 35.4432 87.7628 35.4432C86.8253 35.4432 85.9541 35.6468 85.1491 36.054C84.3537 36.4517 83.6813 37.0057 83.1321 37.7159C82.5829 38.4261 82.2277 39.2453 82.0668 40.1733L79.9503 53H74.8082ZM96.5163 46.1534L97.5249 39.946H98.3487L107.681 31.1818H113.69L102.269 41.9205H101.218L96.5163 46.1534ZM90.7067 53L95.5362 23.9091H100.678L95.8487 53H90.7067ZM104.4 53L98.9453 43.071L103.022 39.4489L110.55 53H104.4ZM119.52 53.5C118.126 53.5 116.974 53.0152 116.065 52.0455C115.156 51.0758 114.732 49.8939 114.793 48.5C114.853 47.1364 115.406 45.9773 116.452 45.0227C117.497 44.0682 118.702 43.5909 120.065 43.5909C121.414 43.5909 122.558 44.0758 123.497 45.0455C124.452 46.0152 124.884 47.1667 124.793 48.5C124.732 49.4394 124.444 50.2879 123.929 51.0455C123.429 51.803 122.793 52.4015 122.02 52.8409C121.247 53.2803 120.414 53.5 119.52 53.5Z" fill="#6C9AE3"/>
</svg>
